<svg width="148" height="148" viewBox="0 0 148 148" fill="none" xmlns="http://www.w3.org/2000/svg">
<rect width="148" height="148" rx="74" fill="#00B2AE"/>
<path d="M35.6696 71.4861C35.9002 72.055 36.4691 72.4394 37.0841 72.4394H44.772C45.141 72.4394 45.4947 72.3164 45.7714 72.0703L53.9974 65.0283V75.5299C53.9974 75.8835 54.1358 76.1757 54.3203 76.4371H54.305L63.0999 88.1841L60.1785 101.33C60.0709 101.792 60.1785 102.268 60.486 102.622C60.7781 102.991 61.224 103.191 61.6853 103.191H67.8356C68.4968 103.191 69.0811 102.76 69.2963 102.145L73.909 88.3071C74.032 87.9689 74.0167 87.5845 73.8783 87.2462L72.433 83.6483L79.0138 87.4153L83.4266 94.765C83.7034 95.2262 84.2108 95.5184 84.7489 95.5184H90.8992C91.4066 95.5184 91.8833 95.257 92.1754 94.8418C92.4676 94.4267 92.5137 93.8885 92.3292 93.4119L86.1789 78.0361C86.0251 77.6517 85.7176 77.3289 85.3178 77.1751L78.5986 74.4843V62.3836L89.131 53.0198L90.2381 54.1269L88.0701 56.2948C87.4704 56.8945 87.4704 57.8632 88.0701 58.4628L96.7728 67.1655C97.0803 67.473 97.4647 67.6114 97.8644 67.6114C98.2642 67.6114 98.6486 67.4576 98.9561 67.1655L112.01 54.1115C112.61 53.5118 112.61 52.5431 112.01 51.9435L103.307 43.2408C102.708 42.6412 101.739 42.6412 101.139 43.2408L98.9715 45.4088L95.7118 42.1491C95.1122 41.5495 94.1435 41.5495 93.5439 42.1491L92.4829 43.2101V41.7032C92.4829 41.119 92.1447 40.5808 91.6219 40.3194C91.0991 40.058 90.4687 40.1195 90.0074 40.4886L78.6601 49.3142C77.3071 50.3752 75.6772 50.9287 73.9552 50.9287H59.4251C56.5498 50.9287 53.8437 52.0511 51.7987 54.0807L35.9925 69.8101C35.5466 70.256 35.4235 70.9172 35.6542 71.4861H35.6696ZM104.368 53.0044C104.707 52.6662 104.876 52.1741 104.799 51.6975L104.368 48.6531L108.72 53.0044L97.8491 63.8751L93.4977 59.5237L96.5421 59.9543C96.5421 59.9543 96.6805 59.9543 96.7574 59.9543C97.1572 59.9543 97.5569 59.8005 97.8491 59.5084L104.368 52.989V53.0044ZM94.5894 45.3934L96.7574 47.5614L92.4061 51.9127L90.2381 49.7448L94.5894 45.3934ZM53.9206 56.2333C55.3813 54.7726 57.3032 53.9731 59.3636 53.9731H73.8937C76.2769 53.9731 78.6294 53.1736 80.4899 51.7129L89.3617 44.8245V46.2545L86.963 48.6531C86.6709 48.9452 86.5171 49.3296 86.5171 49.7448C86.5171 50.1599 86.6709 50.5289 86.9477 50.8057L76.0309 60.5232C75.708 60.8153 75.5235 61.2304 75.5235 61.6763V73.9769H57.0726V61.6763C57.0726 61.0767 56.719 60.5232 56.1808 60.2771C55.6273 60.0311 54.9969 60.108 54.5356 60.5078L44.2031 69.3642H40.7897L53.9206 56.2333Z" fill="white"/>
<path d="M66.298 49.3757C70.5439 49.3757 73.9859 45.9338 73.9859 41.6879C73.9859 37.442 70.5439 34 66.298 34C62.0521 34 58.6102 37.442 58.6102 41.6879C58.6102 45.9338 62.0521 49.3757 66.298 49.3757Z" fill="white"/>
<path d="M91.422 110.786L90.3765 107.896C71.9256 114.554 51.6142 107.957 51.3989 107.896L50.4303 110.817C50.9992 111.002 60.1785 114 71.9409 114C78.0144 114 84.7951 113.2 91.422 110.817V110.786Z" fill="white"/>
<path d="M78.8139 108.757L78.368 105.712C59.871 108.372 48.8619 100.5 48.7543 100.408L47.8471 101.653L46.94 102.883C47.3551 103.191 55.8733 109.341 70.7263 109.341C73.2479 109.341 75.954 109.157 78.8293 108.757H78.8139Z" fill="white"/>
</svg>
