<svg width="148" height="148" viewBox="0 0 148 148" fill="none" xmlns="http://www.w3.org/2000/svg">
<rect width="148" height="148" rx="74" fill="#00B2AE"/>
<path fill-rule="evenodd" clip-rule="evenodd" d="M93.2993 72.6207C104.718 72.6207 113.989 81.8917 113.989 93.3103C113.989 104.729 104.718 114 93.2993 114C81.8806 114 72.6096 104.729 72.6096 93.3103C72.6096 81.8917 81.8806 72.6207 93.2993 72.6207ZM87.782 98.8276V106.414C87.782 107.176 88.3993 107.793 89.1613 107.793H97.4372C98.1993 107.793 98.8165 107.176 98.8165 106.414V98.8276H106.403C107.165 98.8276 107.782 98.2103 107.782 97.4483V89.1724C107.782 88.4103 107.165 87.7931 106.403 87.7931H98.8165V80.2069C98.8165 79.4448 98.1993 78.8276 97.4372 78.8276H89.1613C88.3993 78.8276 87.782 79.4448 87.782 80.2069V87.7931H80.1958C79.4337 87.7931 78.8165 88.4103 78.8165 89.1724V97.4483C78.8165 98.2103 79.4337 98.8276 80.1958 98.8276H87.782ZM90.5406 97.4483C90.5406 96.6862 89.9234 96.069 89.1613 96.069H81.5751V90.5517H89.1613C89.9234 90.5517 90.5406 89.9345 90.5406 89.1724V81.5862H96.0579V89.1724C96.0579 89.9345 96.6751 90.5517 97.4372 90.5517H105.023V96.069H97.4372C96.6751 96.069 96.0579 96.6862 96.0579 97.4483V105.034H90.5406V97.4483ZM73.9324 80.0938C69.8613 72.5179 64.6889 65.7738 58.8165 59.5586L49.0227 62.8179C48.6703 62.9352 48.2855 62.9055 47.9558 62.7359C45.8441 61.6483 37.8475 57.5303 35.1158 56.0945C34.4365 55.7372 34.011 55.0338 34.011 54.2669V53.8724C34.011 53.1738 34.3648 52.5221 34.9524 52.1407C35.5393 51.76 36.28 51.7014 36.92 51.9855L47.1993 56.5462C47.5689 56.7103 47.9917 56.7041 48.3565 56.529C50.8048 55.3517 60.4303 50.7255 64.5351 48.7552C65.6482 48.22 66.9827 48.4903 67.7993 49.4172C73.3551 55.7828 77.9662 62.96 81.6689 72.949C78.582 74.7172 75.9344 77.1676 73.9324 80.0938ZM56.7475 34C60.9344 34 64.3337 37.3993 64.3337 41.5862C64.3337 45.7731 60.9344 49.1724 56.7475 49.1724C52.5606 49.1724 49.1613 45.7731 49.1613 41.5862C49.1613 37.3993 52.5606 34 56.7475 34ZM65.4551 73.1828C67.0434 75.3697 68.5365 77.629 69.9193 79.971L63.1351 83.8476C62.6165 84.1441 62.3475 84.7407 62.4689 85.3262C63.0427 88.0821 64.6786 95.9545 65.4841 99.9828C65.631 100.715 65.4413 101.475 64.9675 102.053C64.4937 102.63 63.7862 102.966 63.0393 102.966H63.0379C61.9855 102.966 61.0648 102.258 60.7937 101.241L55.6062 81.7876C55.462 81.2483 55.6572 80.6752 56.1006 80.3366L65.4551 73.1828ZM37.8406 77.0441C37.3027 76.5055 37.3027 75.6317 37.8406 75.0938C38.3793 74.5552 39.2531 74.5552 39.7917 75.0938L43.731 79.0324L44.4041 77.0117C44.54 76.6041 44.8586 76.2828 45.2655 76.1435C45.6717 76.0041 46.12 76.0621 46.4779 76.3007L50.6158 79.0593C51.2489 79.4814 51.4206 80.3386 50.9986 80.9717C50.5758 81.6055 49.7193 81.7766 49.0855 81.3545L46.4503 79.5972L45.642 82.0221C45.491 82.4759 45.1158 82.8186 44.6503 82.9283C44.1855 83.0386 43.6965 82.8993 43.3579 82.5614L37.8406 77.0441ZM53.7924 76.049C54.1841 76.7014 53.9717 77.5497 53.3193 77.9414C52.6662 78.3331 51.8186 78.1207 51.4268 77.4683L48.4717 72.5428L47.5855 74.02C47.3489 74.4138 46.9324 74.6641 46.4737 74.6876C46.0151 74.711 45.5744 74.5055 45.2993 74.1379L41.1613 68.6207C40.7041 68.0117 40.8282 67.1462 41.4372 66.6897C42.0462 66.2324 42.911 66.3566 43.3682 66.9655L46.2751 70.8414L47.2889 69.1524C47.5379 68.7366 47.9868 68.4828 48.4717 68.4828C48.9558 68.4828 49.4048 68.7366 49.6544 69.1524L53.7924 76.049ZM51.1544 82.5076C51.7882 82.0848 52.6448 82.2566 53.0675 82.8897C53.4896 83.5234 53.3179 84.3807 52.6848 84.8028L50.6158 86.1821C49.9827 86.6041 49.1255 86.4331 48.7034 85.7993C48.2806 85.1662 48.4524 84.309 49.0855 83.8869L51.1544 82.5076ZM56.7062 73.6655C56.891 74.4041 56.4413 75.1531 55.7027 75.3379C54.9641 75.5228 54.2144 75.0731 54.0296 74.3345L53.34 71.5759C53.1558 70.8372 53.6055 70.0876 54.3441 69.9035C55.082 69.7186 55.8317 70.1683 56.0165 70.9069L56.7062 73.6655ZM51.9903 86.6669C52.231 85.9448 53.0131 85.5538 53.7351 85.7945C54.4572 86.0352 54.8482 86.8172 54.6075 87.5393L53.9179 89.6083C53.6772 90.3303 52.8951 90.7214 52.1731 90.4807C51.451 90.24 51.06 89.4586 51.3006 88.7359L51.9903 86.6669ZM71.0137 48.931L79.2393 50.4731C79.5124 50.5241 79.7641 50.6572 79.9606 50.8538L88.5662 59.4586C89.36 60.2531 89.36 61.54 88.5662 62.3345L88.5462 62.3538C87.8103 63.0897 86.6337 63.1386 85.84 62.4662L78.5689 56.3145C78.3793 56.1538 78.1503 56.0476 77.9048 56.0069L76.0903 55.7041C74.4958 53.3028 72.8034 51.0676 71.0137 48.931Z" fill="white"/>
</svg>
