<svg width="23" height="26" viewBox="0 0 23 26" fill="none" xmlns="http://www.w3.org/2000/svg">
<path d="M8.66187 17.5577C8.51765 17.2683 6.29488 12.834 4.02045 12.2761C3.25375 12.1043 2.63971 12.2559 2.63971 12.2559C1.79533 12.5005 1.17994 13.2302 0.939798 13.8672C0.459175 15.2858 1.19818 16.3672 1.9203 17.3805C3.36454 19.4071 4.76622 21.4082 6.21046 23.4348C6.70324 24.1076 7.20447 24.8143 7.9965 25.0882C9.02699 25.4477 10.2044 24.9403 10.9052 24.1173C11.6402 23.2859 11.9921 22.2241 12.3525 21.1963C12.567 20.6017 12.7815 20.0071 12.9959 19.4125C13.7336 17.4249 14.5479 15.4546 15.4048 13.5098C16.2617 11.565 17.1611 9.6458 18.1372 7.74379C19.1133 5.84179 20.0979 3.97381 21.1932 2.11459C21.4756 1.64767 21.7238 1.18919 22.0062 0.722275C22.0575 0.637382 22.4081 0.153627 22.3487 0.0599755C22.2892 -0.0336763 21.8197 0.262775 21.7174 0.288041C20.847 0.719581 20.0104 1.28722 19.2589 1.90606C17.7302 3.18619 16.4822 4.72201 15.2852 6.31746C12.7625 9.8651 10.5462 13.626 8.66187 17.5577Z" fill="#00B2AE"/>
</svg>
