<svg width="148" height="149" viewBox="0 0 148 149" fill="none" xmlns="http://www.w3.org/2000/svg">
<rect y="0.5" width="148" height="148" rx="74" fill="#00B2AE"/>
<path d="M98.2599 69.9797C100.775 71.9234 104.849 74.7676 107.778 72.2807C110.353 69.4575 111.929 65.8676 112.266 62.0619C112.967 50.0993 103.92 43.2247 94.1866 48.6414C92.7002 49.2274 90.1704 50.8282 89.7274 48.3986C89.7082 48.0732 89.7993 47.7508 89.9861 47.4836C90.1728 47.2165 90.4443 47.0202 90.7565 46.9264C93.1146 46.2118 95.9303 44.511 98.3742 44.1537C96.0879 40.0397 92.3541 36.9222 87.898 35.4069C79.9658 32.6057 65.8451 36.4074 70.2185 45.24C70.7759 46.6549 74.0632 49.056 72.0622 50.5138C71.9074 50.6144 71.7343 50.6834 71.5528 50.717C71.3713 50.7506 71.1849 50.7481 71.0044 50.7096C70.8239 50.6711 70.6527 50.5974 70.5007 50.4927C70.3487 50.388 70.2188 50.2543 70.1185 50.0994C66.8884 46.2691 64.9304 41.4526 68.2747 36.9934C65.213 35.4936 61.6858 35.2521 58.4483 36.3206C55.2107 37.389 52.5202 39.6825 50.9526 42.71C52.0913 42.743 53.2082 43.0303 54.2216 43.5507C55.235 44.0712 56.1191 44.8117 56.8093 45.718C57.4995 46.6243 57.9782 47.6736 58.2105 48.7888C58.4427 49.9041 58.4226 51.0572 58.1516 52.1637C58.0665 52.5363 57.8381 52.8603 57.5158 53.0658C57.1936 53.2713 56.8034 53.3417 56.4297 53.2618C56.056 53.1818 55.7288 52.958 55.5188 52.6387C55.3088 52.3194 55.2329 51.9303 55.3076 51.5555C55.5132 50.7785 55.5216 49.9625 55.3319 49.1815C55.1423 48.4005 54.7606 47.6792 54.2215 47.0831C53.6824 46.4871 53.003 46.035 52.2449 45.768C51.4869 45.5011 50.6741 45.4276 49.8805 45.5544C43.5064 46.2689 38.3754 51.2711 36.4745 57.574C35.6656 60.1447 35.4836 62.8716 35.9435 65.527C36.4035 68.1824 37.4922 70.6893 39.1186 72.8381C43.5635 79.2697 50.4952 79.4554 57.2126 79.6555C61.1715 79.7555 66.1024 79.8698 69.4753 81.9423C69.7797 82.1549 69.9895 82.4775 70.0606 82.8419C70.1317 83.2062 70.0585 83.584 69.8564 83.8955C69.6543 84.2069 69.3392 84.4277 68.9774 84.5113C68.6157 84.5948 68.2356 84.5346 67.9174 84.3433C65.663 83.2339 63.1839 82.6569 60.6712 82.6569C59.5136 88.4595 65.3305 92.4757 70.9903 91.904C72.6739 96.5383 75.9383 100.43 80.2088 102.895C81.8667 103.995 85.1968 106.211 84.9252 107.954C84.644 108.682 84.5439 109.467 84.6338 110.242C84.7236 111.017 85.0006 111.759 85.4408 112.403C85.8811 113.048 86.4714 113.575 87.1609 113.94C87.8504 114.306 88.6184 114.498 89.3987 114.5C97.2737 113.742 94.9441 102.309 90.1419 98.3926C86.4402 94.891 80.4947 93.076 79.7228 87.3733C86.4688 89.1456 107.721 85.4868 108.493 75.3392C103.448 77.7118 98.6029 73.91 95.0441 71.1516C94.8891 71.0458 94.7564 70.9104 94.6538 70.7531C94.5512 70.5959 94.4806 70.42 94.446 70.2354C94.4115 70.0509 94.4137 69.8613 94.4526 69.6776C94.4915 69.494 94.5662 69.3197 94.6725 69.165C95.7873 67.7215 97.1594 69.165 98.2599 69.9797Z" fill="white"/>
<path d="M94.6724 99.3788C101.896 96.1645 107.14 90.5766 107.421 83.143C101.689 88.1179 91.7299 90.5226 84.6108 90.6891C87.8663 93.3414 92.3869 95.5625 94.6724 99.3788Z" fill="white"/>
</svg>
