<svg width="148" height="149" viewBox="0 0 148 149" fill="none" xmlns="http://www.w3.org/2000/svg">
<rect y="0.5" width="148" height="148" rx="74" fill="#00B2AE"/>
<path d="M111.023 77.4767H48.8241C50.4531 77.4767 51.786 76.1438 51.786 74.5148C51.786 72.8858 50.4531 71.5529 48.8241 71.5529H42.9004C41.2713 71.5529 39.9385 72.8858 39.9385 74.5148C39.9385 76.1438 41.2713 77.4767 42.9004 77.4767H36.9766C35.3476 77.4767 34.0148 78.8095 34.0148 80.4385V83.4004H36.9766V89.3241H56.2288V99.6907H44.3813V105.614H103.619V99.6907H91.7712V89.3241H111.023V83.4004H113.985V80.4385C113.985 78.8095 112.652 77.4767 111.023 77.4767ZM85.8474 99.6907H62.1525V89.3241H85.8474V99.6907Z" fill="white"/>
<path d="M44.3813 114.5C46.835 114.5 48.8241 112.511 48.8241 110.057C48.8241 107.604 46.835 105.614 44.3813 105.614C41.9276 105.614 39.9385 107.604 39.9385 110.057C39.9385 112.511 41.9276 114.5 44.3813 114.5Z" fill="white"/>
<path d="M103.619 114.5C106.072 114.5 108.061 112.511 108.061 110.057C108.061 107.604 106.072 105.614 103.619 105.614C101.165 105.614 99.1758 107.604 99.1758 110.057C99.1758 112.511 101.165 114.5 103.619 114.5Z" fill="white"/>
<path d="M45.0181 38.9724L48.7797 45.222C48.8389 45.3256 48.9278 45.4145 49.0018 45.5033L41.1381 53.3671L45.3291 57.5581L46.3806 56.5067L47.432 57.5581C48.5427 58.6836 50.0385 59.2908 51.6231 59.2908C53.2077 59.2908 54.6886 58.6688 55.8141 57.5581C56.9396 56.4326 57.5468 54.9517 57.5468 53.3671C57.5468 51.7825 56.9248 50.3016 55.8141 49.176C56.9692 50.3312 58.4798 50.9087 60.0051 50.9087C61.5305 50.9087 63.0411 50.3312 64.1962 49.176C66.5064 46.8658 66.5064 43.1042 64.1962 40.794L63.1447 39.7425L64.1962 38.691L60.0051 34.5L51.1492 43.356L47.1506 36.6918C46.8841 36.2475 46.3954 35.9661 45.877 35.9661H35.5105C34.696 35.9661 34.0296 36.6325 34.0296 37.4471C34.0296 38.2616 34.696 38.928 35.5105 38.928H45.0329L45.0181 38.9724ZM53.6964 55.47C52.5709 56.5955 50.6308 56.5955 49.5053 55.47L53.6964 51.279C54.2591 51.8417 54.5701 52.5822 54.5701 53.3671C54.5701 54.152 54.2591 54.9073 53.6964 55.4552V55.47ZM62.0785 47.0879C60.9233 48.2431 59.0425 48.2431 57.8874 47.0879L62.0785 42.8969C63.2336 44.052 63.2336 45.9328 62.0785 47.0879Z" fill="white"/>
<path d="M112.504 34.5296H76.9618V55.2627H112.504V34.5296ZM79.9237 40.4534C79.9237 39.6388 80.5901 38.9724 81.4046 38.9724H82.8856C83.7001 38.9724 84.3665 39.6388 84.3665 40.4534C84.3665 41.2679 83.7001 41.9343 82.8856 41.9343H81.4046C80.5901 41.9343 79.9237 41.2679 79.9237 40.4534ZM107.247 50.657C107.04 50.7606 106.803 50.8199 106.58 50.8199C106.033 50.8199 105.514 50.5237 105.248 50.0054L104.685 48.8799L103.174 50.3904C102.804 50.7606 102.256 50.9087 101.753 50.7755C101.249 50.6422 100.849 50.2571 100.701 49.7536L99.161 44.3778L97.6208 49.7536C97.4431 50.3904 96.8508 50.8347 96.1992 50.8347H90.2754C89.7127 50.8347 89.2091 50.5237 88.9574 50.0202L87.3136 46.7473L85.6697 50.0202C85.418 50.5237 84.8996 50.8347 84.3517 50.8347H82.8708C82.0562 50.8347 81.3898 50.1683 81.3898 49.3538C81.3898 48.5392 82.0562 47.8728 82.8708 47.8728H83.4335L85.9807 42.7636C86.4842 41.7566 88.1281 41.7566 88.6316 42.7636L91.1788 47.8728H95.0736L97.7245 38.5874C97.9022 37.9506 98.4946 37.5063 99.1462 37.5063C99.7978 37.5063 100.39 37.9506 100.568 38.5874L102.834 46.54L104.018 45.3552C104.359 45.0146 104.818 44.8665 105.307 44.9406C105.781 45.0146 106.181 45.3108 106.388 45.7403L107.869 48.7021C108.239 49.4278 107.943 50.3164 107.202 50.6866L107.247 50.657Z" fill="white"/>
</svg>
