<svg width="148" height="149" viewBox="0 0 148 149" fill="none" xmlns="http://www.w3.org/2000/svg">
<rect y="0.5" width="148" height="148" rx="74" fill="#00B2AE"/>
<path d="M42.225 82.7329L51.0372 79.5268L52.6403 83.933L43.8281 87.1392L42.225 82.7329Z" fill="white"/>
<path d="M95.3823 65.0934L104.195 61.8873L105.798 66.2935L96.9855 69.4997L95.3823 65.0934Z" fill="white"/>
<path d="M42.2314 66.2774L43.8345 61.8711L52.6467 65.0773L51.0436 69.4835L42.2314 66.2774Z" fill="white"/>
<path d="M95.3756 83.8955L96.9787 79.4893L105.791 82.6954L104.188 87.1017L95.3756 83.8955Z" fill="white"/>
<path d="M41.1875 72.1562H50.5625V76.8438H41.1875V72.1562Z" fill="white"/>
<path d="M97.4375 72.1562H106.812V76.8438H97.4375V72.1562Z" fill="white"/>
<path d="M74 69.3908C67.5328 69.3908 63.1211 73.8472 59.6578 71.4062C57.8284 70.1172 57.5938 67.6223 57.5938 65.5928C57.5938 60.8973 60.4077 56.723 64.625 54.8858V34.5H83.3647V54.8858C87.5923 56.723 90.4062 60.8973 90.4062 65.5927C90.4062 67.6331 90.1709 70.1408 88.3364 71.4303C84.863 73.872 80.4675 69.3908 74 69.3908Z" fill="white"/>
<path d="M83.3647 114.5H64.625V92.2381C56.782 88.8217 56.1625 78.8053 59.3639 76.6958C62.4456 74.6656 65.3538 79.0909 68.7641 77.4434C69.7205 76.9817 71.0619 74.5 74 74.5C76.9369 74.5 78.2762 76.9795 79.2314 77.4395C80.8108 78.2003 82.1313 77.738 83.9652 76.9463C85.3309 76.3564 87.0308 75.6227 88.6309 76.6747C91.8347 78.7809 91.2302 88.8164 83.3645 92.2383L83.3647 114.5Z" fill="white"/>
</svg>
