<svg width="148" height="149" viewBox="0 0 148 149" fill="none" xmlns="http://www.w3.org/2000/svg">
<rect y="0.5" width="148" height="148" rx="74" fill="#00B2AE"/>
<path d="M80.9641 89.4611C79.9703 86.7077 77.3625 84.8742 74.4391 84.8742H72.65C75.8352 90.0684 76.7562 96.5969 75.1266 102.465L77.3438 108.721C78.2547 111.288 81.1125 112.651 83.6766 111.739C86.2391 110.828 87.6 107.967 86.6906 105.4L80.9641 89.4611Z" fill="white"/>
<path d="M55.0594 54.937C55.5016 55.0309 55.9594 55.0794 56.4281 55.0794C60.0844 55.0794 63.05 52.1116 63.05 48.4492C63.05 44.7869 60.0844 41.8191 56.4281 41.8191C52.8269 41.7814 49.7716 44.8475 49.8047 48.4492C49.8047 51.572 52.0078 54.2922 55.0594 54.937Z" fill="white"/>
<path d="M37.7812 59.2423C40.0109 59.2423 41.825 61.0586 41.825 63.2911V77.0659C43.2919 76.1888 44.8791 75.478 46.5098 74.958C48.6088 74.2881 50.7839 73.9345 53.0047 73.9073C52.7859 72.9781 52.7172 72.1333 52.7156 71.423V67.4039C52.7156 66.107 53.7641 65.0572 55.0594 65.0572C56.3531 65.0572 57.4031 66.1069 57.4031 67.4039V71.423C57.4031 72.5244 57.6984 73.5584 58.2172 74.4486C59.5375 74.7458 60.8297 75.1636 62.0891 75.7002C63.2563 76.1977 64.3734 76.7891 65.4328 77.4695H73.0453C75.7656 77.4695 78.0047 75.2277 78.0047 72.5041C78.0047 69.7803 75.7656 67.5402 73.0453 67.5402H65.6078V65.8114C65.6062 65.0886 65.5297 61.2902 62.4688 58.2239C59.4844 55.2342 55.8094 55.0934 55.0594 55.0809C54.1641 55.0653 53.0141 55.1545 51.7453 55.5488C48.4187 56.5828 46.55 59.0125 45.8719 60.0058C45.8673 60.0198 45.8628 60.0337 45.8583 60.0478C45.4377 58.9811 44.7461 57.8114 43.6078 56.7878C41.2375 54.6555 38.4844 54.5537 37.7812 54.5491H36.3438C35.0578 54.5491 34 55.6081 34 56.8958C34 58.1834 35.0578 59.2425 36.3438 59.2425H37.7812V59.2423Z" fill="white"/>
<path d="M53.3 90.9177C51.8172 90.9177 50.4094 91.5075 49.3375 92.5806C48.2656 93.6538 47.675 95.0634 47.675 96.5495C47.675 98.0342 48.2656 99.4437 49.3375 100.517C50.4094 101.59 51.8172 102.181 53.3 102.181C54.7844 102.181 56.1922 101.59 57.2641 100.517C58.3359 99.4437 58.925 98.0341 58.925 96.5495C58.925 95.0633 58.3359 93.6538 57.2641 92.5806C56.1922 91.5075 54.7844 90.9177 53.3 90.9177Z" fill="white"/>
<path d="M53.3 78.5977C43.4656 78.5977 35.3719 86.7014 35.3719 96.5495C35.3719 106.396 43.4656 114.5 53.3 114.5C63.1359 114.5 71.2297 106.396 71.2297 96.5497C71.2297 86.7014 63.1359 78.5977 53.3 78.5977ZM53.3 106.875C47.6437 106.875 42.9875 102.213 42.9875 96.5495C42.9875 90.8847 47.6437 86.2242 53.3 86.2242C58.9578 86.2242 63.6125 90.8847 63.6125 96.5495C63.6125 102.213 58.9578 106.875 53.3 106.875Z" fill="white"/>
<path d="M105.028 47.6969C104.236 47.6859 103.52 47.7562 102.869 47.8988C99.7391 48.5761 98.0625 50.8822 96.3344 53.598C94.4875 56.5642 92.6422 59.5287 90.7953 62.495L81.1413 65.6398C78.5569 66.5238 77.1569 69.3805 78.0381 71.968C78.9209 74.5556 81.7741 75.9589 84.3584 75.075C88.2459 73.7891 91.8547 72.6452 95.7422 71.3592C95.9387 71.2072 96.1987 70.9114 96.3203 70.7053C98.5031 67.1916 103.594 58.997 103.594 58.997C104.273 57.905 105.731 57.5656 106.822 58.2461C107.914 58.9266 108.252 60.3863 107.572 61.4798C106.005 64.0033 100.297 73.1881 100.297 73.1881C99.9656 73.7169 99.3812 74.5039 98.4328 75.2047C97.3872 75.9661 96.6994 76.1589 95.7422 76.4922V80.4392C95.7422 81.7361 96.7922 82.7859 98.0859 82.7859H111.656C112.951 82.7859 114 81.7366 114 80.4422V56.8583C114 51.8677 110.012 47.7641 105.028 47.6969Z" fill="white"/>
<path d="M102.869 47.815C106.517 47.8152 109.518 44.8102 109.519 41.1583C109.519 37.5058 106.517 34.4998 102.869 34.5C99.2209 34.5006 96.2198 37.5064 96.2203 41.1583C96.2208 44.8095 99.2216 47.8144 102.869 47.815Z" fill="white"/>
<path d="M111.833 87.4719V112.156C111.833 113.45 110.783 114.5 109.489 114.5H100.903C99.6094 114.5 98.5594 113.45 98.5594 112.156V87.4734H111.656C111.716 87.4734 111.773 87.4734 111.833 87.4719Z" fill="white"/>
</svg>
