<svg width="119" height="48" viewBox="0 0 119 48" fill="none" xmlns="http://www.w3.org/2000/svg">
<g clip-path="url(#clip0_172_2167)">
<path d="M9.49402 30.1709C10.1383 29.0977 11.159 27.0373 11.8388 25.1298C12.7068 22.6963 14.0956 19.4935 15.7815 18.0556C15.9488 17.9131 16.1517 17.7664 16.3776 17.6196H5.80018C4.95097 17.6196 4.26282 18.3092 4.26282 19.1602V31.5417H8.81424L9.49193 30.1709H9.49402Z" fill="#9DD8DE"/>
<path d="M44.9662 14.0772H38.0889C38.0554 14.0772 38.024 14.0961 38.0073 14.1254L37.0054 16.0077C36.2503 17.2318 35.1417 19.441 34.3553 21.6461C33.3074 24.5848 32.113 26.8234 31.1592 27.6367C30.2975 28.3703 27.434 29.5441 26.041 30.0597L25.9824 30.0723C25.8988 30.0765 25.7963 30.0723 25.7042 30.0597L25.2566 30.0073L25.608 29.7244C26.0263 29.3848 26.8233 28.8671 27.4047 28.4898C29.3395 27.2321 30.6405 26.3413 31.153 25.3939C32.0942 23.6542 31.6278 19.5291 31.2513 19.418C29.7265 18.9673 27.3462 23.4844 26.2669 22.3148C26.064 22.0947 31.9039 16.0056 33.9976 13.9116C34.4013 13.5071 34.6669 13.2514 34.7213 13.2157V3.81485C34.7213 1.7083 33.0166 0 30.9145 0H17.8501C15.748 0 14.0433 1.7083 14.0433 3.81485V13.985C14.0433 14.0353 14.0015 14.0772 13.9513 14.0772H3.8068C1.70469 14.0772 0 15.7855 0 17.8921V30.1059C0 32.2124 1.70469 33.9207 3.8068 33.9207H10.6841C10.7176 33.9207 10.749 33.9018 10.7657 33.8725L11.7676 31.9902C12.5227 30.7661 13.6313 28.5569 14.4177 26.3518C15.4656 23.4131 16.66 21.1745 17.6137 20.3612C18.4755 19.6276 21.339 18.4538 22.732 17.9382L22.7906 17.9256C22.8742 17.9214 22.9767 17.9256 23.0688 17.9382L23.5164 17.9906L23.165 18.2735C22.7466 18.6131 21.9497 19.1308 21.3683 19.5081C19.4335 20.7658 18.1325 21.6566 17.62 22.604C16.6788 24.3438 17.1452 28.4688 17.5217 28.5799C19.0465 29.0306 21.4268 24.5135 22.5061 25.6831C22.709 25.9032 16.8691 31.9923 14.7754 34.0863C14.3717 34.4908 14.1061 34.7466 14.0517 34.7822V44.1831C14.0517 46.2896 15.7564 47.9979 17.8585 47.9979H30.9229C33.025 47.9979 34.7297 46.2896 34.7297 44.1831V34.0129C34.7297 33.9626 34.7715 33.9207 34.8217 33.9207H44.9704C47.0725 33.9207 48.7772 32.2124 48.7772 30.1059V17.8921C48.7772 15.7855 47.0725 14.0772 44.9704 14.0772H44.9662ZM46.399 30.1059C46.399 30.8982 45.7589 31.5396 44.9683 31.5396H32.4435C32.3933 31.5396 32.3515 31.5815 32.3515 31.6318V44.1831C32.3515 44.9754 31.7114 45.6168 30.9208 45.6168H17.8564C17.0657 45.6168 16.4257 44.9754 16.4257 44.1831V35.2643L16.4759 35.2098C17.894 33.6859 22.5751 28.647 23.2528 27.7394C23.8594 26.9303 24.7755 25.7062 23.6063 24.5366C22.8261 23.7548 21.8368 23.9371 21.3745 24.1698L18.8792 25.92L18.8917 25.5406C18.9231 24.6141 19.0549 23.9308 19.2829 23.5095C19.5778 22.9645 20.9771 22.0255 22.3848 21.1095C24.2819 19.877 25.1228 19.3006 25.2315 18.4999C25.3591 17.5651 25.0077 16.9928 24.6919 16.6784C23.8971 15.8861 23.0939 15.9322 22.8533 15.9679L22.3074 16.0685L22.2154 16.102C21.7615 16.2676 17.7372 17.76 16.3839 18.9128C14.8047 20.2585 13.4723 23.3523 12.6314 25.7104C11.7739 28.1167 10.4289 30.6823 9.84119 31.4641L9.78472 31.5396H3.80889C3.01824 31.5396 2.3782 30.8982 2.3782 30.1059V17.8921C2.3782 17.0997 3.01824 16.4583 3.80889 16.4583H16.3337C16.3839 16.4583 16.4257 16.4164 16.4257 16.3661V3.81485C16.4257 3.02253 17.0657 2.38114 17.8564 2.38114H30.9208C31.7114 2.38114 32.3515 3.02253 32.3515 3.81485V12.7336L32.3013 12.7881C30.8831 14.312 26.202 19.3509 25.5244 20.2585C24.9178 21.0676 24.0016 22.2917 25.1709 23.4613C25.951 24.2431 26.9404 24.0608 27.4026 23.8281L29.898 22.0779L29.8854 22.4573C29.8541 23.3838 29.7223 24.0671 29.4943 24.4884C29.1994 25.0334 27.8001 25.9724 26.3924 26.8884C24.4953 28.1209 23.6544 28.6973 23.5457 29.498C23.4181 30.4328 23.7987 30.9778 24.0853 31.3195C24.8676 32.2501 26.6099 31.877 26.6099 31.877C26.6099 31.877 31.04 30.2379 32.3954 29.0851C33.9746 27.7394 35.307 24.6456 36.1478 22.2875C37.0054 19.8812 38.3503 17.3156 38.9381 16.5338L38.9945 16.4583H44.9704C45.761 16.4583 46.4011 17.0997 46.4011 17.8921V30.1059H46.399Z" fill="white"/>
<path d="M26.7897 45.6188H30.9187C31.7093 45.6188 32.3493 44.9774 32.3493 44.1851V31.6339C32.3493 31.5836 32.3912 31.5416 32.4414 31.5416H44.9661C45.7568 31.5416 46.3968 30.9002 46.3968 30.1079V17.8941C46.3968 17.8375 46.3864 17.783 46.3801 17.7285C46.1563 17.6594 45.922 17.6195 45.6752 17.6195H39.4881L39.348 17.9046C38.7038 18.9778 37.683 21.0382 37.0032 22.9456C36.1352 25.3792 35.0517 28.5631 33.3638 30.001C31.9519 31.2042 26.7103 33.0256 26.7103 33.0256C24.878 33.6314 24.5308 32.0153 24.1522 31.3949C24.1271 31.3698 24.102 31.3467 24.079 31.3215C24.0476 31.2859 24.0162 31.244 23.9848 31.2042C23.9723 31.1958 23.9618 31.1853 23.9493 31.179H23.966C23.7025 30.8353 23.4285 30.3175 23.5393 29.5001C23.6481 28.7015 24.491 28.1229 26.3861 26.8904C27.7937 25.9766 29.193 25.0375 29.488 24.4904C29.716 24.0691 29.8456 23.3858 29.8791 22.4594L29.8917 22.08L27.3963 23.8302C26.9341 24.0608 25.9447 24.2431 25.1645 23.4634C23.9974 22.2938 24.9135 21.0697 25.518 20.2606C26.1957 19.353 30.8768 14.314 32.295 12.7902L32.3452 12.7357V4.06006H19.2535C18.4462 4.06006 17.7894 4.71613 17.7894 5.52731V16.8293C19.4083 16.0223 21.0691 15.0078 22.6755 15.012C23.9305 15.0141 24.2672 16.0622 24.6061 16.6029C24.6333 16.6281 24.6604 16.6511 24.6876 16.6784C24.7462 16.735 24.8027 16.8042 24.8592 16.8796C24.8675 16.8838 24.8759 16.8922 24.8863 16.8964H24.8696C25.1206 17.2318 25.3298 17.7453 25.2273 18.4999C25.1185 19.2985 24.2756 19.877 22.3806 21.1095C20.9729 22.0234 19.5736 22.9624 19.2786 23.5095C19.0507 23.9308 18.921 24.6141 18.8875 25.5406L18.875 25.92L21.3703 24.1698C21.8325 23.9392 22.8219 23.7568 23.6021 24.5366C24.7692 25.7062 23.8531 26.9303 23.2486 27.7394C22.6587 28.5254 19.059 32.4262 17.1891 34.4384H17.7915V45.6105C17.8124 45.6105 17.8312 45.6167 17.8521 45.6167H26.7877L26.7897 45.6188Z" fill="#9DD8DE"/>
<path d="M58.1477 21.3819C57.0622 20.7846 56.2129 19.9545 55.5959 18.8939C54.9768 17.8333 54.6693 16.6448 54.6693 15.3285C54.6693 14.0122 54.9768 12.8258 55.5959 11.7652C56.2129 10.7046 57.0663 9.87452 58.1582 9.27505C59.25 8.67557 60.4694 8.37793 61.8227 8.37793C62.8372 8.37793 63.7701 8.54561 64.6276 8.88518C65.4852 9.22474 66.2131 9.71941 66.8092 10.3692L65.8952 11.2873C64.8284 10.2057 63.4835 9.66701 61.8604 9.66701C60.7811 9.66701 59.8022 9.91435 58.9174 10.409C58.0348 10.9037 57.3403 11.5807 56.8404 12.4401C56.3405 13.2974 56.0895 14.2637 56.0895 15.3285C56.0895 16.3933 56.3405 17.3596 56.8404 18.219C57.3403 19.0763 58.0327 19.7554 58.9174 20.2501C59.8001 20.7447 60.7811 20.9921 61.8604 20.9921C63.4961 20.9921 64.841 20.445 65.8952 19.353L66.8092 20.2689C66.2131 20.9208 65.481 21.4176 64.6172 21.7634C63.7533 22.1093 62.8142 22.2812 61.7997 22.2812C60.4485 22.2812 59.2312 21.9814 58.1456 21.3819H58.1477Z" fill="white"/>
<path d="M79.7314 20.9145V22.1637H70.0847V8.49316H79.4386V9.74452H71.5259V14.6074H78.581V15.8378H71.5259V20.9166H79.7293L79.7314 20.9145Z" fill="white"/>
<path d="M92.5156 9.74452C93.5028 10.5767 93.9965 11.7232 93.9965 13.1821C93.9965 14.6409 93.5008 15.7812 92.5156 16.6091C91.5283 17.435 90.1646 17.8479 88.4222 17.8479H84.7577V22.1637H83.3165V8.49316H88.4222C90.1646 8.49316 91.5283 8.91028 92.5156 9.74452ZM91.4844 15.6911C92.1977 15.0979 92.5553 14.2615 92.5553 13.1821C92.5553 12.1026 92.1977 11.2264 91.4844 10.6333C90.7691 10.0401 89.7358 9.74452 88.3846 9.74452H84.7598V16.5798H88.3846C89.7358 16.5798 90.7691 16.2822 91.4844 15.6911Z" fill="white"/>
<path d="M105.183 18.5124H97.5836L95.948 22.1637H94.4482L100.683 8.49316H102.106L108.341 22.1637H106.82L105.185 18.5124H105.183ZM104.655 17.3407L101.382 9.99814L98.1086 17.3407H104.655Z" fill="white"/>
<path d="M112.763 9.74452H107.969V8.49316H118.998V9.74452H114.204V22.1658H112.763V9.74452Z" fill="white"/>
<path d="M56.5664 40.06C55.5917 39.7771 54.8095 39.4082 54.2175 38.9533L55.255 36.6476C55.8218 37.0627 56.4932 37.3959 57.2734 37.6495C58.0536 37.9011 58.8317 38.0289 59.6119 38.0289C60.4799 38.0289 61.1221 37.899 61.5362 37.6412C61.9503 37.3834 62.1574 37.0396 62.1574 36.6099C62.1574 36.2955 62.034 36.0335 61.7914 35.826C61.5467 35.6185 61.2308 35.4529 60.848 35.325C60.4653 35.1992 59.9445 35.0609 59.2919 34.9079C58.2858 34.6689 57.4617 34.43 56.8195 34.191C56.1774 33.95 55.6273 33.5664 55.1692 33.0382C54.7091 32.51 54.479 31.8036 54.479 30.9212C54.479 30.1519 54.6861 29.456 55.1023 28.8314C55.5164 28.2068 56.1418 27.7121 56.9785 27.3474C57.8152 26.9827 58.838 26.8003 60.0449 26.8003C60.8878 26.8003 61.7098 26.9009 62.5172 27.1042C63.3225 27.3054 64.0273 27.5947 64.6297 27.9741L63.6864 30.2986C62.4649 29.6069 61.2455 29.259 60.026 29.259C59.1706 29.259 58.5389 29.3994 58.131 29.6761C57.7231 29.9528 57.5161 30.3196 57.5161 30.7723C57.5161 31.2251 57.7524 31.5647 58.223 31.7847C58.6936 32.0048 59.4153 32.2228 60.3837 32.4366C61.3898 32.6756 62.2139 32.9145 62.856 33.1556C63.4982 33.3945 64.0483 33.7718 64.5063 34.2895C64.9644 34.8073 65.1966 35.5074 65.1966 36.3877C65.1966 37.1423 64.9853 37.834 64.5649 38.4565C64.1424 39.0812 63.5107 39.5758 62.6699 39.9406C61.8269 40.3074 60.802 40.4876 59.5952 40.4876C58.5514 40.4876 57.5433 40.3451 56.5685 40.0621L56.5664 40.06Z" fill="white"/>
<path d="M77.5163 37.8005V40.257H67.2924V27.0225H77.2716V29.4812H70.3294V32.3549H76.4621V34.736H70.3294V37.7984H77.5163V37.8005Z" fill="white"/>
<path d="M92.0617 27.0244V40.259H89.0058V34.8323H83.0069V40.259H79.951V27.0244H83.0069V32.2436H89.0058V27.0244H92.0617Z" fill="white"/>
<path d="M103.888 37.423H97.7551L96.5859 40.259H93.4547L99.3406 27.0244H102.359L108.264 40.259H105.057L103.888 37.423ZM102.926 35.0964L100.832 30.0302L98.7382 35.0964H102.926Z" fill="white"/>
<path d="M111.719 29.5189H107.492V27.0225H119V29.5189H114.773V40.257H111.717V29.5189H111.719Z" fill="white"/>
</g>
<defs>
<clipPath id="clip0_172_2167">
<rect width="119" height="48" fill="white"/>
</clipPath>
</defs>
</svg>
